<svg width="36" height="36" viewBox="0 0 36 36" fill="none" xmlns="http://www.w3.org/2000/svg">
<path d="M14.3552 28.2299C14.0702 28.2299 13.7852 28.1249 13.5602 27.8999L4.45516 18.7949C4.02016 18.3599 4.02016 17.6399 4.45516 17.2049L13.5602 8.09993C13.9952 7.66493 14.7152 7.66493 15.1502 8.09993C15.5852 8.53493 15.5852 9.25493 15.1502 9.68993L6.84016 17.9999L15.1502 26.3099C15.5852 26.7449 15.5852 27.4649 15.1502 27.8999C14.9402 28.1249 14.6402 28.2299 14.3552 28.2299Z" fill="#666666"/>
<path d="M30.7499 19.125H5.50488C4.88988 19.125 4.37988 18.615 4.37988 18C4.37988 17.385 4.88988 16.875 5.50488 16.875H30.7499C31.3649 16.875 31.8749 17.385 31.8749 18C31.8749 18.615 31.3649 19.125 30.7499 19.125Z" fill="#666666"/>
</svg>
