<svg width="30" height="31" viewBox="0 0 30 31" fill="none" xmlns="http://www.w3.org/2000/svg">
<path d="M15.1992 15.025C15.1617 15.025 15.1367 15.025 15.0992 15.025C15.0367 15.0125 14.9492 15.0125 14.8742 15.025C11.2492 14.9125 8.51172 12.0625 8.51172 8.55C8.51172 4.975 11.4242 2.0625 14.9992 2.0625C18.5742 2.0625 21.4867 4.975 21.4867 8.55C21.4742 12.0625 18.7242 14.9125 15.2367 15.025C15.2242 15.025 15.2117 15.025 15.1992 15.025ZM14.9992 3.9375C12.4617 3.9375 10.3867 6.0125 10.3867 8.55C10.3867 11.05 12.3367 13.0625 14.8242 13.15C14.8867 13.1375 15.0617 13.1375 15.2242 13.15C17.6742 13.0375 19.5992 11.025 19.6117 8.55C19.6117 6.0125 17.5367 3.9375 14.9992 3.9375Z" fill="black" fill-opacity="0.6"/>
<path d="M15.212 28.6875C12.762 28.6875 10.2995 28.0625 8.43701 26.8125C6.69951 25.6625 5.74951 24.0875 5.74951 22.375C5.74951 20.6625 6.69951 19.075 8.43701 17.9125C12.187 15.425 18.262 15.425 21.987 17.9125C23.712 19.0625 24.6745 20.6375 24.6745 22.35C24.6745 24.0625 23.7245 25.65 21.987 26.8125C20.112 28.0625 17.662 28.6875 15.212 28.6875ZM9.47451 19.4875C8.27451 20.2875 7.62451 21.3125 7.62451 22.3875C7.62451 23.45 8.28701 24.475 9.47451 25.2625C12.587 27.35 17.837 27.35 20.9495 25.2625C22.1495 24.4625 22.7995 23.4375 22.7995 22.3625C22.7995 21.3 22.137 20.275 20.9495 19.4875C17.837 17.4125 12.587 17.4125 9.47451 19.4875Z" fill="black" fill-opacity="0.6"/>
</svg>
