<svg width="39" height="39" viewBox="0 0 39 39" fill="none" xmlns="http://www.w3.org/2000/svg">
<g clip-path="url(#clip0_1_3946)">
<path d="M38.0878 11.0391C37.9789 10.8844 37.8344 10.7581 37.6665 10.6709C37.4986 10.5838 37.3123 10.5382 37.1231 10.538H11.9208L10.013 3.9593C9.26492 1.36877 7.48719 1.08911 6.75807 1.08911H1.67141C1.01944 1.08911 0.492188 1.61696 0.492188 2.2683C0.492188 2.91964 1.02003 3.44745 1.67138 3.44745H6.75744C6.91834 3.44745 7.40938 3.44745 7.74429 4.60467L14.307 28.7234C14.4495 29.2322 14.9132 29.5837 15.4422 29.5837H31.4723C31.9699 29.5837 32.414 29.272 32.582 28.8035L38.2322 12.1162C38.3622 11.7546 38.3082 11.352 38.0879 11.0391H38.0878ZM30.6424 27.226H16.3373L12.5836 12.897H35.4465L30.6424 27.226ZM28.3037 31.9736C26.6638 31.9736 25.3349 33.3024 25.3349 34.9424C25.3349 36.5823 26.6638 37.9111 28.3037 37.9111C29.9436 37.9111 31.2724 36.5823 31.2724 34.9424C31.2724 33.3024 29.9436 31.9736 28.3037 31.9736ZM17.6162 31.9736C15.9763 31.9736 14.6474 33.3024 14.6474 34.9424C14.6474 36.5823 15.9763 37.9111 17.6162 37.9111C19.2561 37.9111 20.5849 36.5823 20.5849 34.9424C20.5849 33.3024 19.2561 31.9736 17.6162 31.9736Z" fill="#171717" fill-opacity="0.8"/>
</g>
<defs>
<clipPath id="clip0_1_3946">
<rect width="38" height="38" fill="white" transform="translate(0.398438 0.5)"/>
</clipPath>
</defs>
</svg>
