<svg width="1244" height="85" viewBox="0 0 1244 85" fill="none" xmlns="http://www.w3.org/2000/svg">
<line x1="641" y1="28.5" x2="1183" y2="28.5" stroke="#979797"/>
<line x1="40" y1="26.5" x2="602" y2="26.5" stroke="#979797"/>
<circle cx="19.9187" cy="19.9187" r="19.9187" fill="#115573"/>
<path d="M16.81 14.75V12.878H20.554V26H18.484V14.75H16.81Z" fill="white"/>
<path d="M0.594 62.8514C0.594 61.8194 0.804 60.9194 1.224 60.1514C1.644 59.3714 2.226 58.7714 2.97 58.3514C3.714 57.9194 4.566 57.7034 5.526 57.7034C6.762 57.7034 7.782 58.0154 8.586 58.6394C9.402 59.2514 9.948 60.1154 10.224 61.2314H7.506C7.362 60.7994 7.116 60.4634 6.768 60.2234C6.432 59.9714 6.012 59.8454 5.508 59.8454C4.788 59.8454 4.218 60.1094 3.798 60.6374C3.378 61.1534 3.168 61.8914 3.168 62.8514C3.168 63.7994 3.378 64.5374 3.798 65.0654C4.218 65.5814 4.788 65.8394 5.508 65.8394C6.528 65.8394 7.194 65.3834 7.506 64.4714H10.224C9.948 65.5514 9.402 66.4094 8.586 67.0454C7.77 67.6814 6.75 67.9994 5.526 67.9994C4.566 67.9994 3.714 67.7894 2.97 67.3694C2.226 66.9374 1.644 66.3374 1.224 65.5694C0.804 64.7894 0.594 63.8834 0.594 62.8514ZM11.4221 62.8154C11.4221 61.8074 11.6201 60.9134 12.0161 60.1334C12.4241 59.3534 12.9701 58.7534 13.6541 58.3334C14.3501 57.9134 15.1241 57.7034 15.9761 57.7034C16.7201 57.7034 17.3681 57.8534 17.9201 58.1534C18.4841 58.4534 18.9341 58.8314 19.2701 59.2874V57.8654H21.8081V67.8374H19.2701V66.3794C18.9461 66.8474 18.4961 67.2374 17.9201 67.5494C17.3561 67.8494 16.7021 67.9994 15.9581 67.9994C15.1181 67.9994 14.3501 67.7834 13.6541 67.3514C12.9701 66.9194 12.4241 66.3134 12.0161 65.5334C11.6201 64.7414 11.4221 63.8354 11.4221 62.8154ZM19.2701 62.8514C19.2701 62.2394 19.1501 61.7174 18.9101 61.2854C18.6701 60.8414 18.3461 60.5054 17.9381 60.2774C17.5301 60.0374 17.0921 59.9174 16.6241 59.9174C16.1561 59.9174 15.7241 60.0314 15.3281 60.2594C14.9321 60.4874 14.6081 60.8234 14.3561 61.2674C14.1161 61.6994 13.9961 62.2154 13.9961 62.8154C13.9961 63.4154 14.1161 63.9434 14.3561 64.3994C14.6081 64.8434 14.9321 65.1854 15.3281 65.4254C15.7361 65.6654 16.1681 65.7854 16.6241 65.7854C17.0921 65.7854 17.5301 65.6714 17.9381 65.4434C18.3461 65.2034 18.6701 64.8674 18.9101 64.4354C19.1501 63.9914 19.2701 63.4634 19.2701 62.8514ZM26.7893 59.4134C27.1133 58.8854 27.5333 58.4714 28.0493 58.1714C28.5773 57.8714 29.1773 57.7214 29.8493 57.7214V60.3674H29.1833C28.3913 60.3674 27.7913 60.5534 27.3833 60.9254C26.9873 61.2974 26.7893 61.9454 26.7893 62.8694V67.8374H24.2693V57.8654H26.7893V59.4134ZM34.4807 59.9354V64.7594C34.4807 65.0954 34.5587 65.3414 34.7147 65.4974C34.8827 65.6414 35.1587 65.7134 35.5427 65.7134H36.7127V67.8374H35.1287C33.0047 67.8374 31.9427 66.8054 31.9427 64.7414V59.9354H30.7547V57.8654H31.9427V55.3994H34.4807V57.8654H36.7127V59.9354H34.4807Z" fill="#115573"/>
<circle cx="621.501" cy="26.9187" r="19.9187" fill="#115573"/>
<path d="M618.796 30.21C619.948 29.214 620.854 28.398 621.514 27.762C622.186 27.114 622.744 26.442 623.188 25.746C623.632 25.05 623.854 24.354 623.854 23.658C623.854 22.938 623.68 22.374 623.332 21.966C622.996 21.558 622.462 21.354 621.73 21.354C621.022 21.354 620.47 21.582 620.074 22.038C619.69 22.482 619.486 23.082 619.462 23.838H617.482C617.518 22.47 617.926 21.426 618.706 20.706C619.498 19.974 620.5 19.608 621.712 19.608C623.02 19.608 624.04 19.968 624.772 20.688C625.516 21.408 625.888 22.368 625.888 23.568C625.888 24.432 625.666 25.266 625.222 26.07C624.79 26.862 624.268 27.576 623.656 28.212C623.056 28.836 622.288 29.562 621.352 30.39L620.542 31.11H626.248V32.82H617.5V31.326L618.796 30.21Z" fill="white"/>
<path d="M575.094 68.5014C575.094 67.2534 575.364 66.1434 575.904 65.1714C576.444 64.1874 577.194 63.4254 578.154 62.8854C579.126 62.3334 580.224 62.0574 581.448 62.0574C582.948 62.0574 584.232 62.4534 585.3 63.2454C586.368 64.0374 587.082 65.1174 587.442 66.4854H584.058C583.806 65.9574 583.446 65.5554 582.978 65.2794C582.522 65.0034 582 64.8654 581.412 64.8654C580.464 64.8654 579.696 65.1954 579.108 65.8554C578.52 66.5154 578.226 67.3974 578.226 68.5014C578.226 69.6054 578.52 70.4874 579.108 71.1474C579.696 71.8074 580.464 72.1374 581.412 72.1374C582 72.1374 582.522 71.9994 582.978 71.7234C583.446 71.4474 583.806 71.0454 584.058 70.5174H587.442C587.082 71.8854 586.368 72.9654 585.3 73.7574C584.232 74.5374 582.948 74.9274 581.448 74.9274C580.224 74.9274 579.126 74.6574 578.154 74.1174C577.194 73.5654 576.444 72.8034 575.904 71.8314C575.364 70.8594 575.094 69.7494 575.094 68.5014ZM595.501 64.6854C596.653 64.6854 597.577 65.0694 598.273 65.8374C598.969 66.5934 599.317 67.6374 599.317 68.9694V74.8374H596.257V69.3834C596.257 68.7114 596.083 68.1894 595.735 67.8174C595.387 67.4454 594.919 67.2594 594.331 67.2594C593.743 67.2594 593.275 67.4454 592.927 67.8174C592.579 68.1894 592.405 68.7114 592.405 69.3834V74.8374H589.327V61.5174H592.405V66.1434C592.717 65.6994 593.143 65.3454 593.683 65.0814C594.223 64.8174 594.829 64.6854 595.501 64.6854ZM610.924 69.6534C610.924 69.9414 610.906 70.2414 610.87 70.5534H603.904C603.952 71.1774 604.15 71.6574 604.498 71.9934C604.858 72.3174 605.296 72.4794 605.812 72.4794C606.58 72.4794 607.114 72.1554 607.414 71.5074H610.69C610.522 72.1674 610.216 72.7614 609.772 73.2894C609.34 73.8174 608.794 74.2314 608.134 74.5314C607.474 74.8314 606.736 74.9814 605.92 74.9814C604.936 74.9814 604.06 74.7714 603.292 74.3514C602.524 73.9314 601.924 73.3314 601.492 72.5514C601.06 71.7714 600.844 70.8594 600.844 69.8154C600.844 68.7714 601.054 67.8594 601.474 67.0794C601.906 66.2994 602.506 65.6994 603.274 65.2794C604.042 64.8594 604.924 64.6494 605.92 64.6494C606.892 64.6494 607.756 64.8534 608.512 65.2614C609.268 65.6694 609.856 66.2514 610.276 67.0074C610.708 67.7634 610.924 68.6454 610.924 69.6534ZM607.774 68.8434C607.774 68.3154 607.594 67.8954 607.234 67.5834C606.874 67.2714 606.424 67.1154 605.884 67.1154C605.368 67.1154 604.93 67.2654 604.57 67.5654C604.222 67.8654 604.006 68.2914 603.922 68.8434H607.774ZM611.936 69.8154C611.936 68.7714 612.146 67.8594 612.566 67.0794C612.998 66.2994 613.592 65.6994 614.348 65.2794C615.116 64.8594 615.992 64.6494 616.976 64.6494C618.236 64.6494 619.286 64.9794 620.126 65.6394C620.978 66.2994 621.536 67.2294 621.8 68.4294H618.524C618.248 67.6614 617.714 67.2774 616.922 67.2774C616.358 67.2774 615.908 67.4994 615.572 67.9434C615.236 68.3754 615.068 68.9994 615.068 69.8154C615.068 70.6314 615.236 71.2614 615.572 71.7054C615.908 72.1374 616.358 72.3534 616.922 72.3534C617.714 72.3534 618.248 71.9694 618.524 71.2014H621.8C621.536 72.3774 620.978 73.3014 620.126 73.9734C619.274 74.6454 618.224 74.9814 616.976 74.9814C615.992 74.9814 615.116 74.7714 614.348 74.3514C613.592 73.9314 612.998 73.3314 612.566 72.5514C612.146 71.7714 611.936 70.8594 611.936 69.8154ZM629.584 74.8374L626.524 70.6254V74.8374H623.446V61.5174H626.524V68.8794L629.566 64.7934H633.364L629.188 69.8334L633.4 74.8374H629.584ZM642.959 74.9814C641.975 74.9814 641.087 74.7714 640.295 74.3514C639.515 73.9314 638.897 73.3314 638.441 72.5514C637.997 71.7714 637.775 70.8594 637.775 69.8154C637.775 68.7834 638.003 67.8774 638.459 67.0974C638.915 66.3054 639.539 65.6994 640.331 65.2794C641.123 64.8594 642.011 64.6494 642.995 64.6494C643.979 64.6494 644.867 64.8594 645.659 65.2794C646.451 65.6994 647.075 66.3054 647.531 67.0974C647.987 67.8774 648.215 68.7834 648.215 69.8154C648.215 70.8474 647.981 71.7594 647.513 72.5514C647.057 73.3314 646.427 73.9314 645.623 74.3514C644.831 74.7714 643.943 74.9814 642.959 74.9814ZM642.959 72.3174C643.547 72.3174 644.045 72.1014 644.453 71.6694C644.873 71.2374 645.083 70.6194 645.083 69.8154C645.083 69.0114 644.879 68.3934 644.471 67.9614C644.075 67.5294 643.583 67.3134 642.995 67.3134C642.395 67.3134 641.897 67.5294 641.501 67.9614C641.105 68.3814 640.907 68.9994 640.907 69.8154C640.907 70.6194 641.099 71.2374 641.483 71.6694C641.879 72.1014 642.371 72.3174 642.959 72.3174ZM659.766 64.7934V74.8374H656.688V73.4694C656.376 73.9134 655.95 74.2734 655.41 74.5494C654.882 74.8134 654.294 74.9454 653.646 74.9454C652.878 74.9454 652.2 74.7774 651.612 74.4414C651.024 74.0934 650.568 73.5954 650.244 72.9474C649.92 72.2994 649.758 71.5374 649.758 70.6614V64.7934H652.818V70.2474C652.818 70.9194 652.992 71.4414 653.34 71.8134C653.688 72.1854 654.156 72.3714 654.744 72.3714C655.344 72.3714 655.818 72.1854 656.166 71.8134C656.514 71.4414 656.688 70.9194 656.688 70.2474V64.7934H659.766ZM667.575 72.2274V74.8374H666.009C664.893 74.8374 664.023 74.5674 663.399 74.0274C662.775 73.4754 662.463 72.5814 662.463 71.3454V67.3494H661.239V64.7934H662.463V62.3454H665.541V64.7934H667.557V67.3494H665.541V71.3814C665.541 71.6814 665.613 71.8974 665.757 72.0294C665.901 72.1614 666.141 72.2274 666.477 72.2274H667.575Z" fill="#115573"/>
<circle cx="1202.5" cy="29.9187" r="19.1687" stroke="black" stroke-opacity="0.3" stroke-width="1.5"/>
<path d="M1198.63 26.118C1198.7 25.002 1199.12 24.132 1199.9 23.508C1200.7 22.884 1201.7 22.572 1202.93 22.572C1203.77 22.572 1204.49 22.722 1205.11 23.022C1205.72 23.322 1206.18 23.73 1206.49 24.246C1206.8 24.762 1206.96 25.344 1206.96 25.992C1206.96 26.736 1206.76 27.372 1206.37 27.9C1205.97 28.428 1205.5 28.782 1204.94 28.962V29.034C1205.65 29.25 1206.2 29.646 1206.6 30.222C1207 30.786 1207.19 31.512 1207.19 32.4C1207.19 33.108 1207.03 33.738 1206.71 34.29C1206.38 34.842 1205.9 35.28 1205.27 35.604C1204.63 35.916 1203.87 36.072 1202.98 36.072C1201.69 36.072 1200.62 35.742 1199.78 35.082C1198.95 34.41 1198.51 33.45 1198.45 32.202H1200.43C1200.47 32.838 1200.72 33.36 1201.16 33.768C1201.61 34.164 1202.21 34.362 1202.96 34.362C1203.7 34.362 1204.26 34.164 1204.66 33.768C1205.05 33.36 1205.25 32.838 1205.25 32.202C1205.25 31.362 1204.98 30.768 1204.44 30.42C1203.91 30.06 1203.1 29.88 1201.99 29.88H1201.52V28.188H1202.01C1202.98 28.176 1203.72 28.014 1204.22 27.702C1204.74 27.39 1205 26.898 1205 26.226C1205 25.65 1204.81 25.194 1204.44 24.858C1204.07 24.51 1203.54 24.336 1202.86 24.336C1202.18 24.336 1201.66 24.51 1201.29 24.858C1200.92 25.194 1200.7 25.614 1200.62 26.118H1198.63Z" fill="black" fill-opacity="0.47"/>
<path d="M1168.77 68.9634C1168.77 70.0074 1168.41 70.8774 1167.69 71.5734C1166.99 72.2574 1165.9 72.5994 1164.44 72.5994H1162.02V77.8374H1160.39V65.2914H1164.44C1165.85 65.2914 1166.93 65.6334 1167.66 66.3174C1168.4 67.0014 1168.77 67.8834 1168.77 68.9634ZM1164.44 71.2494C1165.35 71.2494 1166.02 71.0514 1166.45 70.6554C1166.88 70.2594 1167.1 69.6954 1167.1 68.9634C1167.1 67.4154 1166.21 66.6414 1164.44 66.6414H1162.02V71.2494H1164.44ZM1170.2 72.8694C1170.2 71.8614 1170.4 70.9794 1170.81 70.2234C1171.22 69.4554 1171.78 68.8614 1172.48 68.4414C1173.2 68.0214 1174 67.8114 1174.88 67.8114C1175.74 67.8114 1176.49 67.9974 1177.13 68.3694C1177.76 68.7414 1178.24 69.2094 1178.55 69.7734V67.9734H1180.21V77.8374H1178.55V76.0014C1178.23 76.5774 1177.74 77.0574 1177.09 77.4414C1176.46 77.8134 1175.71 77.9994 1174.86 77.9994C1173.98 77.9994 1173.19 77.7834 1172.48 77.3514C1171.78 76.9194 1171.22 76.3134 1170.81 75.5334C1170.4 74.7534 1170.2 73.8654 1170.2 72.8694ZM1178.55 72.8874C1178.55 72.1434 1178.4 71.4954 1178.1 70.9434C1177.8 70.3914 1177.39 69.9714 1176.88 69.6834C1176.37 69.3834 1175.81 69.2334 1175.2 69.2334C1174.59 69.2334 1174.03 69.3774 1173.53 69.6654C1173.02 69.9534 1172.62 70.3734 1172.32 70.9254C1172.02 71.4774 1171.87 72.1254 1171.87 72.8694C1171.87 73.6254 1172.02 74.2854 1172.32 74.8494C1172.62 75.4014 1173.02 75.8274 1173.53 76.1274C1174.03 76.4154 1174.59 76.5594 1175.2 76.5594C1175.81 76.5594 1176.37 76.4154 1176.88 76.1274C1177.39 75.8274 1177.8 75.4014 1178.1 74.8494C1178.4 74.2854 1178.55 73.6314 1178.55 72.8874ZM1191.47 67.9734L1185.53 82.4814H1183.84L1185.78 77.7294L1181.8 67.9734H1183.62L1186.72 75.9654L1189.78 67.9734H1191.47ZM1204.98 67.7934C1205.75 67.7934 1206.43 67.9554 1207.03 68.2794C1207.63 68.5914 1208.1 69.0654 1208.45 69.7014C1208.8 70.3374 1208.97 71.1114 1208.97 72.0234V77.8374H1207.35V72.2574C1207.35 71.2734 1207.11 70.5234 1206.62 70.0074C1206.14 69.4794 1205.48 69.2154 1204.65 69.2154C1203.8 69.2154 1203.12 69.4914 1202.62 70.0434C1202.12 70.5834 1201.86 71.3694 1201.86 72.4014V77.8374H1200.24V72.2574C1200.24 71.2734 1200 70.5234 1199.51 70.0074C1199.03 69.4794 1198.37 69.2154 1197.54 69.2154C1196.69 69.2154 1196.01 69.4914 1195.51 70.0434C1195.01 70.5834 1194.75 71.3694 1194.75 72.4014V77.8374H1193.12V67.9734H1194.75V69.3954C1195.08 68.8794 1195.51 68.4834 1196.05 68.2074C1196.6 67.9314 1197.21 67.7934 1197.87 67.7934C1198.7 67.7934 1199.43 67.9794 1200.06 68.3514C1200.7 68.7234 1201.17 69.2694 1201.49 69.9894C1201.76 69.2934 1202.22 68.7534 1202.85 68.3694C1203.49 67.9854 1204.2 67.7934 1204.98 67.7934ZM1220.66 72.5274C1220.66 72.8394 1220.64 73.1694 1220.61 73.5174H1212.72C1212.78 74.4894 1213.11 75.2514 1213.71 75.8034C1214.33 76.3434 1215.06 76.6134 1215.93 76.6134C1216.64 76.6134 1217.22 76.4514 1217.69 76.1274C1218.17 75.7914 1218.51 75.3474 1218.7 74.7954H1220.46C1220.2 75.7434 1219.67 76.5174 1218.88 77.1174C1218.09 77.7054 1217.1 77.9994 1215.93 77.9994C1214.99 77.9994 1214.15 77.7894 1213.41 77.3694C1212.68 76.9494 1212.1 76.3554 1211.68 75.5874C1211.26 74.8074 1211.05 73.9074 1211.05 72.8874C1211.05 71.8674 1211.25 70.9734 1211.66 70.2054C1212.07 69.4374 1212.64 68.8494 1213.37 68.4414C1214.12 68.0214 1214.97 67.8114 1215.93 67.8114C1216.86 67.8114 1217.69 68.0154 1218.41 68.4234C1219.13 68.8314 1219.68 69.3954 1220.07 70.1154C1220.46 70.8234 1220.66 71.6274 1220.66 72.5274ZM1218.97 72.1854C1218.97 71.5614 1218.83 71.0274 1218.56 70.5834C1218.28 70.1274 1217.9 69.7854 1217.42 69.5574C1216.95 69.3174 1216.43 69.1974 1215.86 69.1974C1215.03 69.1974 1214.32 69.4614 1213.73 69.9894C1213.16 70.5174 1212.83 71.2494 1212.74 72.1854H1218.97ZM1227.63 67.7934C1228.83 67.7934 1229.8 68.1594 1230.55 68.8914C1231.29 69.6114 1231.66 70.6554 1231.66 72.0234V77.8374H1230.04V72.2574C1230.04 71.2734 1229.8 70.5234 1229.3 70.0074C1228.81 69.4794 1228.14 69.2154 1227.29 69.2154C1226.42 69.2154 1225.73 69.4854 1225.22 70.0254C1224.71 70.5654 1224.46 71.3514 1224.46 72.3834V77.8374H1222.82V67.9734H1224.46V69.3774C1224.79 68.8734 1225.22 68.4834 1225.78 68.2074C1226.34 67.9314 1226.96 67.7934 1227.63 67.7934ZM1236.34 69.3234V75.1374C1236.34 75.6174 1236.44 75.9594 1236.64 76.1634C1236.85 76.3554 1237.2 76.4514 1237.7 76.4514H1238.91V77.8374H1237.43C1236.52 77.8374 1235.84 77.6274 1235.38 77.2074C1234.93 76.7874 1234.7 76.0974 1234.7 75.1374V69.3234H1233.42V67.9734H1234.7V65.4894H1236.34V67.9734H1238.91V69.3234H1236.34Z" fill="black" fill-opacity="0.47"/>
</svg>
