<svg width="1244" height="85" viewBox="0 0 1244 85" fill="none" xmlns="http://www.w3.org/2000/svg">
<line x1="641" y1="28.5" x2="1183" y2="28.5" stroke="#979797"/>
<line x1="40" y1="26.5" x2="602" y2="26.5" stroke="#979797"/>
<circle cx="19.9187" cy="19.9187" r="19.9187" fill="#115573"/>
<path d="M16.81 14.75V12.878H20.554V26H18.484V14.75H16.81Z" fill="white"/>
<path d="M0.594 62.8514C0.594 61.8194 0.804 60.9194 1.224 60.1514C1.644 59.3714 2.226 58.7714 2.97 58.3514C3.714 57.9194 4.566 57.7034 5.526 57.7034C6.762 57.7034 7.782 58.0154 8.586 58.6394C9.402 59.2514 9.948 60.1154 10.224 61.2314H7.506C7.362 60.7994 7.116 60.4634 6.768 60.2234C6.432 59.9714 6.012 59.8454 5.508 59.8454C4.788 59.8454 4.218 60.1094 3.798 60.6374C3.378 61.1534 3.168 61.8914 3.168 62.8514C3.168 63.7994 3.378 64.5374 3.798 65.0654C4.218 65.5814 4.788 65.8394 5.508 65.8394C6.528 65.8394 7.194 65.3834 7.506 64.4714H10.224C9.948 65.5514 9.402 66.4094 8.586 67.0454C7.77 67.6814 6.75 67.9994 5.526 67.9994C4.566 67.9994 3.714 67.7894 2.97 67.3694C2.226 66.9374 1.644 66.3374 1.224 65.5694C0.804 64.7894 0.594 63.8834 0.594 62.8514ZM11.4221 62.8154C11.4221 61.8074 11.6201 60.9134 12.0161 60.1334C12.4241 59.3534 12.9701 58.7534 13.6541 58.3334C14.3501 57.9134 15.1241 57.7034 15.9761 57.7034C16.7201 57.7034 17.3681 57.8534 17.9201 58.1534C18.4841 58.4534 18.9341 58.8314 19.2701 59.2874V57.8654H21.8081V67.8374H19.2701V66.3794C18.9461 66.8474 18.4961 67.2374 17.9201 67.5494C17.3561 67.8494 16.7021 67.9994 15.9581 67.9994C15.1181 67.9994 14.3501 67.7834 13.6541 67.3514C12.9701 66.9194 12.4241 66.3134 12.0161 65.5334C11.6201 64.7414 11.4221 63.8354 11.4221 62.8154ZM19.2701 62.8514C19.2701 62.2394 19.1501 61.7174 18.9101 61.2854C18.6701 60.8414 18.3461 60.5054 17.9381 60.2774C17.5301 60.0374 17.0921 59.9174 16.6241 59.9174C16.1561 59.9174 15.7241 60.0314 15.3281 60.2594C14.9321 60.4874 14.6081 60.8234 14.3561 61.2674C14.1161 61.6994 13.9961 62.2154 13.9961 62.8154C13.9961 63.4154 14.1161 63.9434 14.3561 64.3994C14.6081 64.8434 14.9321 65.1854 15.3281 65.4254C15.7361 65.6654 16.1681 65.7854 16.6241 65.7854C17.0921 65.7854 17.5301 65.6714 17.9381 65.4434C18.3461 65.2034 18.6701 64.8674 18.9101 64.4354C19.1501 63.9914 19.2701 63.4634 19.2701 62.8514ZM26.7893 59.4134C27.1133 58.8854 27.5333 58.4714 28.0493 58.1714C28.5773 57.8714 29.1773 57.7214 29.8493 57.7214V60.3674H29.1833C28.3913 60.3674 27.7913 60.5534 27.3833 60.9254C26.9873 61.2974 26.7893 61.9454 26.7893 62.8694V67.8374H24.2693V57.8654H26.7893V59.4134ZM34.4807 59.9354V64.7594C34.4807 65.0954 34.5587 65.3414 34.7147 65.4974C34.8827 65.6414 35.1587 65.7134 35.5427 65.7134H36.7127V67.8374H35.1287C33.0047 67.8374 31.9427 66.8054 31.9427 64.7414V59.9354H30.7547V57.8654H31.9427V55.3994H34.4807V57.8654H36.7127V59.9354H34.4807Z" fill="#115573"/>
<circle cx="621.501" cy="26.9187" r="19.1687" stroke="black" stroke-opacity="0.3" stroke-width="1.5"/>
<path d="M618.796 30.21C619.948 29.214 620.854 28.398 621.514 27.762C622.186 27.114 622.744 26.442 623.188 25.746C623.632 25.05 623.854 24.354 623.854 23.658C623.854 22.938 623.68 22.374 623.332 21.966C622.996 21.558 622.462 21.354 621.73 21.354C621.022 21.354 620.47 21.582 620.074 22.038C619.69 22.482 619.486 23.082 619.462 23.838H617.482C617.518 22.47 617.926 21.426 618.706 20.706C619.498 19.974 620.5 19.608 621.712 19.608C623.02 19.608 624.04 19.968 624.772 20.688C625.516 21.408 625.888 22.368 625.888 23.568C625.888 24.432 625.666 25.266 625.222 26.07C624.79 26.862 624.268 27.576 623.656 28.212C623.056 28.836 622.288 29.562 621.352 30.39L620.542 31.11H626.248V32.82H617.5V31.326L618.796 30.21Z" fill="black" fill-opacity="0.47"/>
<path d="M576.274 68.5554C576.274 67.3314 576.55 66.2334 577.102 65.2614C577.654 64.2774 578.404 63.5094 579.352 62.9574C580.312 62.4054 581.374 62.1294 582.538 62.1294C583.906 62.1294 585.1 62.4594 586.12 63.1194C587.14 63.7794 587.884 64.7154 588.352 65.9274H586.39C586.042 65.1714 585.538 64.5894 584.878 64.1814C584.23 63.7734 583.45 63.5694 582.538 63.5694C581.662 63.5694 580.876 63.7734 580.18 64.1814C579.484 64.5894 578.938 65.1714 578.542 65.9274C578.146 66.6714 577.948 67.5474 577.948 68.5554C577.948 69.5514 578.146 70.4274 578.542 71.1834C578.938 71.9274 579.484 72.5034 580.18 72.9114C580.876 73.3194 581.662 73.5234 582.538 73.5234C583.45 73.5234 584.23 73.3254 584.878 72.9294C585.538 72.5214 586.042 71.9394 586.39 71.1834H588.352C587.884 72.3834 587.14 73.3134 586.12 73.9734C585.1 74.6214 583.906 74.9454 582.538 74.9454C581.374 74.9454 580.312 74.6754 579.352 74.1354C578.404 73.5834 577.654 72.8214 577.102 71.8494C576.55 70.8774 576.274 69.7794 576.274 68.5554ZM595.686 64.7934C596.43 64.7934 597.102 64.9554 597.702 65.2794C598.302 65.5914 598.77 66.0654 599.106 66.7014C599.454 67.3374 599.628 68.1114 599.628 69.0234V74.8374H598.008V69.2574C598.008 68.2734 597.762 67.5234 597.27 67.0074C596.778 66.4794 596.106 66.2154 595.254 66.2154C594.39 66.2154 593.7 66.4854 593.184 67.0254C592.68 67.5654 592.428 68.3514 592.428 69.3834V74.8374H590.79V61.5174H592.428V66.3774C592.752 65.8734 593.196 65.4834 593.76 65.2074C594.336 64.9314 594.978 64.7934 595.686 64.7934ZM611.304 69.5274C611.304 69.8394 611.286 70.1694 611.25 70.5174H603.366C603.426 71.4894 603.756 72.2514 604.356 72.8034C604.968 73.3434 605.706 73.6134 606.57 73.6134C607.278 73.6134 607.866 73.4514 608.334 73.1274C608.814 72.7914 609.15 72.3474 609.342 71.7954H611.106C610.842 72.7434 610.314 73.5174 609.522 74.1174C608.73 74.7054 607.746 74.9994 606.57 74.9994C605.634 74.9994 604.794 74.7894 604.05 74.3694C603.318 73.9494 602.742 73.3554 602.322 72.5874C601.902 71.8074 601.692 70.9074 601.692 69.8874C601.692 68.8674 601.896 67.9734 602.304 67.2054C602.712 66.4374 603.282 65.8494 604.014 65.4414C604.758 65.0214 605.61 64.8114 606.57 64.8114C607.506 64.8114 608.334 65.0154 609.054 65.4234C609.774 65.8314 610.326 66.3954 610.71 67.1154C611.106 67.8234 611.304 68.6274 611.304 69.5274ZM609.612 69.1854C609.612 68.5614 609.474 68.0274 609.198 67.5834C608.922 67.1274 608.544 66.7854 608.064 66.5574C607.596 66.3174 607.074 66.1974 606.498 66.1974C605.67 66.1974 604.962 66.4614 604.374 66.9894C603.798 67.5174 603.468 68.2494 603.384 69.1854H609.612ZM612.854 69.8874C612.854 68.8674 613.058 67.9794 613.466 67.2234C613.874 66.4554 614.438 65.8614 615.158 65.4414C615.89 65.0214 616.724 64.8114 617.66 64.8114C618.872 64.8114 619.868 65.1054 620.648 65.6934C621.44 66.2814 621.962 67.0974 622.214 68.1414H620.45C620.282 67.5414 619.952 67.0674 619.46 66.7194C618.98 66.3714 618.38 66.1974 617.66 66.1974C616.724 66.1974 615.968 66.5214 615.392 67.1694C614.816 67.8054 614.528 68.7114 614.528 69.8874C614.528 71.0754 614.816 71.9934 615.392 72.6414C615.968 73.2894 616.724 73.6134 617.66 73.6134C618.38 73.6134 618.98 73.4454 619.46 73.1094C619.94 72.7734 620.27 72.2934 620.45 71.6694H622.214C621.95 72.6774 621.422 73.4874 620.63 74.0994C619.838 74.6994 618.848 74.9994 617.66 74.9994C616.724 74.9994 615.89 74.7894 615.158 74.3694C614.438 73.9494 613.874 73.3554 613.466 72.5874C613.058 71.8194 612.854 70.9194 612.854 69.8874ZM629.908 74.8374L626.038 70.4814V74.8374H624.4V61.5174H626.038V69.3474L629.836 64.9734H632.122L627.478 69.8874L632.14 74.8374H629.908ZM642.764 74.9994C641.84 74.9994 641 74.7894 640.244 74.3694C639.5 73.9494 638.912 73.3554 638.48 72.5874C638.06 71.8074 637.85 70.9074 637.85 69.8874C637.85 68.8794 638.066 67.9914 638.498 67.2234C638.942 66.4434 639.542 65.8494 640.298 65.4414C641.054 65.0214 641.9 64.8114 642.836 64.8114C643.772 64.8114 644.618 65.0214 645.374 65.4414C646.13 65.8494 646.724 66.4374 647.156 67.2054C647.6 67.9734 647.822 68.8674 647.822 69.8874C647.822 70.9074 647.594 71.8074 647.138 72.5874C646.694 73.3554 646.088 73.9494 645.32 74.3694C644.552 74.7894 643.7 74.9994 642.764 74.9994ZM642.764 73.5594C643.352 73.5594 643.904 73.4214 644.42 73.1454C644.936 72.8694 645.35 72.4554 645.662 71.9034C645.986 71.3514 646.148 70.6794 646.148 69.8874C646.148 69.0954 645.992 68.4234 645.68 67.8714C645.368 67.3194 644.96 66.9114 644.456 66.6474C643.952 66.3714 643.406 66.2334 642.818 66.2334C642.218 66.2334 641.666 66.3714 641.162 66.6474C640.67 66.9114 640.274 67.3194 639.974 67.8714C639.674 68.4234 639.524 69.0954 639.524 69.8874C639.524 70.6914 639.668 71.3694 639.956 71.9214C640.256 72.4734 640.652 72.8874 641.144 73.1634C641.636 73.4274 642.176 73.5594 642.764 73.5594ZM658.724 64.9734V74.8374H657.086V73.3794C656.774 73.8834 656.336 74.2794 655.772 74.5674C655.22 74.8434 654.608 74.9814 653.936 74.9814C653.168 74.9814 652.478 74.8254 651.866 74.5134C651.254 74.1894 650.768 73.7094 650.408 73.0734C650.06 72.4374 649.886 71.6634 649.886 70.7514V64.9734H651.506V70.5354C651.506 71.5074 651.752 72.2574 652.244 72.7854C652.736 73.3014 653.408 73.5594 654.26 73.5594C655.136 73.5594 655.826 73.2894 656.33 72.7494C656.834 72.2094 657.086 71.4234 657.086 70.3914V64.9734H658.724ZM663.488 66.3234V72.1374C663.488 72.6174 663.59 72.9594 663.794 73.1634C663.998 73.3554 664.352 73.4514 664.856 73.4514H666.062V74.8374H664.586C663.674 74.8374 662.99 74.6274 662.534 74.2074C662.078 73.7874 661.85 73.0974 661.85 72.1374V66.3234H660.572V64.9734H661.85V62.4894H663.488V64.9734H666.062V66.3234H663.488Z" fill="black" fill-opacity="0.47"/>
<circle cx="1202.5" cy="29.9187" r="19.1687" stroke="black" stroke-opacity="0.3" stroke-width="1.5"/>
<path d="M1198.63 26.118C1198.7 25.002 1199.12 24.132 1199.9 23.508C1200.7 22.884 1201.7 22.572 1202.93 22.572C1203.77 22.572 1204.49 22.722 1205.11 23.022C1205.72 23.322 1206.18 23.73 1206.49 24.246C1206.8 24.762 1206.96 25.344 1206.96 25.992C1206.96 26.736 1206.76 27.372 1206.37 27.9C1205.97 28.428 1205.5 28.782 1204.94 28.962V29.034C1205.65 29.25 1206.2 29.646 1206.6 30.222C1207 30.786 1207.19 31.512 1207.19 32.4C1207.19 33.108 1207.03 33.738 1206.71 34.29C1206.38 34.842 1205.9 35.28 1205.27 35.604C1204.63 35.916 1203.87 36.072 1202.98 36.072C1201.69 36.072 1200.62 35.742 1199.78 35.082C1198.95 34.41 1198.51 33.45 1198.45 32.202H1200.43C1200.47 32.838 1200.72 33.36 1201.16 33.768C1201.61 34.164 1202.21 34.362 1202.96 34.362C1203.7 34.362 1204.26 34.164 1204.66 33.768C1205.05 33.36 1205.25 32.838 1205.25 32.202C1205.25 31.362 1204.98 30.768 1204.44 30.42C1203.91 30.06 1203.1 29.88 1201.99 29.88H1201.52V28.188H1202.01C1202.98 28.176 1203.72 28.014 1204.22 27.702C1204.74 27.39 1205 26.898 1205 26.226C1205 25.65 1204.81 25.194 1204.44 24.858C1204.07 24.51 1203.54 24.336 1202.86 24.336C1202.18 24.336 1201.66 24.51 1201.29 24.858C1200.92 25.194 1200.7 25.614 1200.62 26.118H1198.63Z" fill="black" fill-opacity="0.47"/>
<path d="M1168.77 68.9634C1168.77 70.0074 1168.41 70.8774 1167.69 71.5734C1166.99 72.2574 1165.9 72.5994 1164.44 72.5994H1162.02V77.8374H1160.39V65.2914H1164.44C1165.85 65.2914 1166.93 65.6334 1167.66 66.3174C1168.4 67.0014 1168.77 67.8834 1168.77 68.9634ZM1164.44 71.2494C1165.35 71.2494 1166.02 71.0514 1166.45 70.6554C1166.88 70.2594 1167.1 69.6954 1167.1 68.9634C1167.1 67.4154 1166.21 66.6414 1164.44 66.6414H1162.02V71.2494H1164.44ZM1170.2 72.8694C1170.2 71.8614 1170.4 70.9794 1170.81 70.2234C1171.22 69.4554 1171.78 68.8614 1172.48 68.4414C1173.2 68.0214 1174 67.8114 1174.88 67.8114C1175.74 67.8114 1176.49 67.9974 1177.13 68.3694C1177.76 68.7414 1178.24 69.2094 1178.55 69.7734V67.9734H1180.21V77.8374H1178.55V76.0014C1178.23 76.5774 1177.74 77.0574 1177.09 77.4414C1176.46 77.8134 1175.71 77.9994 1174.86 77.9994C1173.98 77.9994 1173.19 77.7834 1172.48 77.3514C1171.78 76.9194 1171.22 76.3134 1170.81 75.5334C1170.4 74.7534 1170.2 73.8654 1170.2 72.8694ZM1178.55 72.8874C1178.55 72.1434 1178.4 71.4954 1178.1 70.9434C1177.8 70.3914 1177.39 69.9714 1176.88 69.6834C1176.37 69.3834 1175.81 69.2334 1175.2 69.2334C1174.59 69.2334 1174.03 69.3774 1173.53 69.6654C1173.02 69.9534 1172.62 70.3734 1172.32 70.9254C1172.02 71.4774 1171.87 72.1254 1171.87 72.8694C1171.87 73.6254 1172.02 74.2854 1172.32 74.8494C1172.62 75.4014 1173.02 75.8274 1173.53 76.1274C1174.03 76.4154 1174.59 76.5594 1175.2 76.5594C1175.81 76.5594 1176.37 76.4154 1176.88 76.1274C1177.39 75.8274 1177.8 75.4014 1178.1 74.8494C1178.4 74.2854 1178.55 73.6314 1178.55 72.8874ZM1191.47 67.9734L1185.53 82.4814H1183.84L1185.78 77.7294L1181.8 67.9734H1183.62L1186.72 75.9654L1189.78 67.9734H1191.47ZM1204.98 67.7934C1205.75 67.7934 1206.43 67.9554 1207.03 68.2794C1207.63 68.5914 1208.1 69.0654 1208.45 69.7014C1208.8 70.3374 1208.97 71.1114 1208.97 72.0234V77.8374H1207.35V72.2574C1207.35 71.2734 1207.11 70.5234 1206.62 70.0074C1206.14 69.4794 1205.48 69.2154 1204.65 69.2154C1203.8 69.2154 1203.12 69.4914 1202.62 70.0434C1202.12 70.5834 1201.86 71.3694 1201.86 72.4014V77.8374H1200.24V72.2574C1200.24 71.2734 1200 70.5234 1199.51 70.0074C1199.03 69.4794 1198.37 69.2154 1197.54 69.2154C1196.69 69.2154 1196.01 69.4914 1195.51 70.0434C1195.01 70.5834 1194.75 71.3694 1194.75 72.4014V77.8374H1193.12V67.9734H1194.75V69.3954C1195.08 68.8794 1195.51 68.4834 1196.05 68.2074C1196.6 67.9314 1197.21 67.7934 1197.87 67.7934C1198.7 67.7934 1199.43 67.9794 1200.06 68.3514C1200.7 68.7234 1201.17 69.2694 1201.49 69.9894C1201.76 69.2934 1202.22 68.7534 1202.85 68.3694C1203.49 67.9854 1204.2 67.7934 1204.98 67.7934ZM1220.66 72.5274C1220.66 72.8394 1220.64 73.1694 1220.61 73.5174H1212.72C1212.78 74.4894 1213.11 75.2514 1213.71 75.8034C1214.33 76.3434 1215.06 76.6134 1215.93 76.6134C1216.64 76.6134 1217.22 76.4514 1217.69 76.1274C1218.17 75.7914 1218.51 75.3474 1218.7 74.7954H1220.46C1220.2 75.7434 1219.67 76.5174 1218.88 77.1174C1218.09 77.7054 1217.1 77.9994 1215.93 77.9994C1214.99 77.9994 1214.15 77.7894 1213.41 77.3694C1212.68 76.9494 1212.1 76.3554 1211.68 75.5874C1211.26 74.8074 1211.05 73.9074 1211.05 72.8874C1211.05 71.8674 1211.25 70.9734 1211.66 70.2054C1212.07 69.4374 1212.64 68.8494 1213.37 68.4414C1214.12 68.0214 1214.97 67.8114 1215.93 67.8114C1216.86 67.8114 1217.69 68.0154 1218.41 68.4234C1219.13 68.8314 1219.68 69.3954 1220.07 70.1154C1220.46 70.8234 1220.66 71.6274 1220.66 72.5274ZM1218.97 72.1854C1218.97 71.5614 1218.83 71.0274 1218.56 70.5834C1218.28 70.1274 1217.9 69.7854 1217.42 69.5574C1216.95 69.3174 1216.43 69.1974 1215.86 69.1974C1215.03 69.1974 1214.32 69.4614 1213.73 69.9894C1213.16 70.5174 1212.83 71.2494 1212.74 72.1854H1218.97ZM1227.63 67.7934C1228.83 67.7934 1229.8 68.1594 1230.55 68.8914C1231.29 69.6114 1231.66 70.6554 1231.66 72.0234V77.8374H1230.04V72.2574C1230.04 71.2734 1229.8 70.5234 1229.3 70.0074C1228.81 69.4794 1228.14 69.2154 1227.29 69.2154C1226.42 69.2154 1225.73 69.4854 1225.22 70.0254C1224.71 70.5654 1224.46 71.3514 1224.46 72.3834V77.8374H1222.82V67.9734H1224.46V69.3774C1224.79 68.8734 1225.22 68.4834 1225.78 68.2074C1226.34 67.9314 1226.96 67.7934 1227.63 67.7934ZM1236.34 69.3234V75.1374C1236.34 75.6174 1236.44 75.9594 1236.64 76.1634C1236.85 76.3554 1237.2 76.4514 1237.7 76.4514H1238.91V77.8374H1237.43C1236.52 77.8374 1235.84 77.6274 1235.38 77.2074C1234.93 76.7874 1234.7 76.0974 1234.7 75.1374V69.3234H1233.42V67.9734H1234.7V65.4894H1236.34V67.9734H1238.91V69.3234H1236.34Z" fill="black" fill-opacity="0.47"/>
</svg>
