<svg width="43" height="39" viewBox="0 0 43 39" fill="none" xmlns="http://www.w3.org/2000/svg">
<g clip-path="url(#clip0_1_4270)">
<path d="M32.1361 15.7627C32.0443 15.6325 31.9227 15.5261 31.7813 15.4527C31.6399 15.3793 31.4829 15.3409 31.3236 15.3408H10.1006L8.49413 9.80079C7.86413 7.61929 6.36709 7.38379 5.75309 7.38379H1.46959C0.920563 7.38379 0.476562 7.82829 0.476562 8.37679C0.476562 8.92529 0.921063 9.36976 1.46956 9.36976H5.75256C5.88806 9.36976 6.30156 9.36976 6.58359 10.3443L12.1101 30.6548C12.2301 31.0833 12.6206 31.3792 13.0661 31.3792H26.5651C26.9841 31.3792 27.3581 31.1167 27.4996 30.7222L32.2576 16.6697C32.3671 16.3652 32.3216 16.0262 32.1361 15.7627H32.1361ZM25.8662 29.3938H13.8198L10.6588 17.3273H29.9118L25.8662 29.3938ZM23.8968 33.3918C22.5158 33.3918 21.3968 34.5108 21.3968 35.8918C21.3968 37.2728 22.5158 38.3918 23.8968 38.3918C25.2778 38.3918 26.3968 37.2728 26.3968 35.8918C26.3968 34.5108 25.2778 33.3918 23.8968 33.3918ZM14.8968 33.3918C13.5158 33.3918 12.3968 34.5108 12.3968 35.8918C12.3968 37.2728 13.5158 38.3918 14.8968 38.3918C16.2778 38.3918 17.3968 37.2728 17.3968 35.8918C17.3968 34.5108 16.2778 33.3918 14.8968 33.3918Z" fill="#171717" fill-opacity="0.8"/>
</g>
<rect x="19.2656" y="1.1123" width="22" height="22" rx="11" fill="#0F4D68"/>
<rect x="19.2656" y="1.1123" width="22" height="22" rx="11" stroke="white" stroke-width="2"/>
<path d="M34.5037 10.4857C34.6217 10.3678 34.715 10.2275 34.778 10.0731C34.841 9.9186 34.8724 9.75309 34.8705 9.58628C34.8685 9.41947 34.8331 9.25474 34.7665 9.1018C34.6999 8.94887 34.6033 8.81081 34.4825 8.69578C34.3617 8.58075 34.2191 8.49106 34.063 8.43201C33.907 8.37296 33.7408 8.34573 33.5741 8.35194C33.4073 8.35815 33.2436 8.39766 33.0924 8.46815C32.9412 8.53864 32.8056 8.63868 32.6937 8.76237L28.837 12.8124L27.837 11.7624C27.7251 11.6387 27.5895 11.5386 27.4383 11.4681C27.2871 11.3977 27.1234 11.3581 26.9567 11.3519C26.79 11.3457 26.6237 11.373 26.4677 11.432C26.3117 11.4911 26.169 11.5807 26.0482 11.6958C25.9274 11.8108 25.8308 11.9489 25.7642 12.1018C25.6976 12.2547 25.6622 12.4195 25.6602 12.5863C25.6583 12.7531 25.6897 12.9186 25.7527 13.0731C25.8157 13.2275 25.909 13.3678 26.027 13.4857L27.932 15.4857C28.0488 15.6082 28.1892 15.7058 28.3447 15.7724C28.5003 15.8391 28.6678 15.8735 28.837 15.8735C29.0063 15.8735 29.1737 15.8391 29.3293 15.7724C29.4849 15.7058 29.6253 15.6082 29.742 15.4857L34.5037 10.4857Z" fill="white"/>
<defs>
<clipPath id="clip0_1_4270">
<rect width="32" height="32" fill="white" transform="translate(0.398438 6.8877)"/>
</clipPath>
</defs>
</svg>
