<svg width="1244" height="85" viewBox="0 0 1244 85" fill="none" xmlns="http://www.w3.org/2000/svg">
<line x1="641" y1="28.5" x2="1183" y2="28.5" stroke="#979797"/>
<line x1="40" y1="26.5" x2="602" y2="26.5" stroke="#979797"/>
<circle cx="19.9187" cy="19.9187" r="19.9187" fill="#115573"/>
<path d="M16.81 14.75V12.878H20.554V26H18.484V14.75H16.81Z" fill="white"/>
<path d="M0.594 62.8514C0.594 61.8194 0.804 60.9194 1.224 60.1514C1.644 59.3714 2.226 58.7714 2.97 58.3514C3.714 57.9194 4.566 57.7034 5.526 57.7034C6.762 57.7034 7.782 58.0154 8.586 58.6394C9.402 59.2514 9.948 60.1154 10.224 61.2314H7.506C7.362 60.7994 7.116 60.4634 6.768 60.2234C6.432 59.9714 6.012 59.8454 5.508 59.8454C4.788 59.8454 4.218 60.1094 3.798 60.6374C3.378 61.1534 3.168 61.8914 3.168 62.8514C3.168 63.7994 3.378 64.5374 3.798 65.0654C4.218 65.5814 4.788 65.8394 5.508 65.8394C6.528 65.8394 7.194 65.3834 7.506 64.4714H10.224C9.948 65.5514 9.402 66.4094 8.586 67.0454C7.77 67.6814 6.75 67.9994 5.526 67.9994C4.566 67.9994 3.714 67.7894 2.97 67.3694C2.226 66.9374 1.644 66.3374 1.224 65.5694C0.804 64.7894 0.594 63.8834 0.594 62.8514ZM11.4221 62.8154C11.4221 61.8074 11.6201 60.9134 12.0161 60.1334C12.4241 59.3534 12.9701 58.7534 13.6541 58.3334C14.3501 57.9134 15.1241 57.7034 15.9761 57.7034C16.7201 57.7034 17.3681 57.8534 17.9201 58.1534C18.4841 58.4534 18.9341 58.8314 19.2701 59.2874V57.8654H21.8081V67.8374H19.2701V66.3794C18.9461 66.8474 18.4961 67.2374 17.9201 67.5494C17.3561 67.8494 16.7021 67.9994 15.9581 67.9994C15.1181 67.9994 14.3501 67.7834 13.6541 67.3514C12.9701 66.9194 12.4241 66.3134 12.0161 65.5334C11.6201 64.7414 11.4221 63.8354 11.4221 62.8154ZM19.2701 62.8514C19.2701 62.2394 19.1501 61.7174 18.9101 61.2854C18.6701 60.8414 18.3461 60.5054 17.9381 60.2774C17.5301 60.0374 17.0921 59.9174 16.6241 59.9174C16.1561 59.9174 15.7241 60.0314 15.3281 60.2594C14.9321 60.4874 14.6081 60.8234 14.3561 61.2674C14.1161 61.6994 13.9961 62.2154 13.9961 62.8154C13.9961 63.4154 14.1161 63.9434 14.3561 64.3994C14.6081 64.8434 14.9321 65.1854 15.3281 65.4254C15.7361 65.6654 16.1681 65.7854 16.6241 65.7854C17.0921 65.7854 17.5301 65.6714 17.9381 65.4434C18.3461 65.2034 18.6701 64.8674 18.9101 64.4354C19.1501 63.9914 19.2701 63.4634 19.2701 62.8514ZM26.7893 59.4134C27.1133 58.8854 27.5333 58.4714 28.0493 58.1714C28.5773 57.8714 29.1773 57.7214 29.8493 57.7214V60.3674H29.1833C28.3913 60.3674 27.7913 60.5534 27.3833 60.9254C26.9873 61.2974 26.7893 61.9454 26.7893 62.8694V67.8374H24.2693V57.8654H26.7893V59.4134ZM34.4807 59.9354V64.7594C34.4807 65.0954 34.5587 65.3414 34.7147 65.4974C34.8827 65.6414 35.1587 65.7134 35.5427 65.7134H36.7127V67.8374H35.1287C33.0047 67.8374 31.9427 66.8054 31.9427 64.7414V59.9354H30.7547V57.8654H31.9427V55.3994H34.4807V57.8654H36.7127V59.9354H34.4807Z" fill="#115573"/>
<circle cx="621.501" cy="26.9187" r="19.9187" fill="#115573"/>
<path d="M618.796 30.21C619.948 29.214 620.854 28.398 621.514 27.762C622.186 27.114 622.744 26.442 623.188 25.746C623.632 25.05 623.854 24.354 623.854 23.658C623.854 22.938 623.68 22.374 623.332 21.966C622.996 21.558 622.462 21.354 621.73 21.354C621.022 21.354 620.47 21.582 620.074 22.038C619.69 22.482 619.486 23.082 619.462 23.838H617.482C617.518 22.47 617.926 21.426 618.706 20.706C619.498 19.974 620.5 19.608 621.712 19.608C623.02 19.608 624.04 19.968 624.772 20.688C625.516 21.408 625.888 22.368 625.888 23.568C625.888 24.432 625.666 25.266 625.222 26.07C624.79 26.862 624.268 27.576 623.656 28.212C623.056 28.836 622.288 29.562 621.352 30.39L620.542 31.11H626.248V32.82H617.5V31.326L618.796 30.21Z" fill="white"/>
<path d="M575.094 68.5014C575.094 67.2534 575.364 66.1434 575.904 65.1714C576.444 64.1874 577.194 63.4254 578.154 62.8854C579.126 62.3334 580.224 62.0574 581.448 62.0574C582.948 62.0574 584.232 62.4534 585.3 63.2454C586.368 64.0374 587.082 65.1174 587.442 66.4854H584.058C583.806 65.9574 583.446 65.5554 582.978 65.2794C582.522 65.0034 582 64.8654 581.412 64.8654C580.464 64.8654 579.696 65.1954 579.108 65.8554C578.52 66.5154 578.226 67.3974 578.226 68.5014C578.226 69.6054 578.52 70.4874 579.108 71.1474C579.696 71.8074 580.464 72.1374 581.412 72.1374C582 72.1374 582.522 71.9994 582.978 71.7234C583.446 71.4474 583.806 71.0454 584.058 70.5174H587.442C587.082 71.8854 586.368 72.9654 585.3 73.7574C584.232 74.5374 582.948 74.9274 581.448 74.9274C580.224 74.9274 579.126 74.6574 578.154 74.1174C577.194 73.5654 576.444 72.8034 575.904 71.8314C575.364 70.8594 575.094 69.7494 575.094 68.5014ZM595.501 64.6854C596.653 64.6854 597.577 65.0694 598.273 65.8374C598.969 66.5934 599.317 67.6374 599.317 68.9694V74.8374H596.257V69.3834C596.257 68.7114 596.083 68.1894 595.735 67.8174C595.387 67.4454 594.919 67.2594 594.331 67.2594C593.743 67.2594 593.275 67.4454 592.927 67.8174C592.579 68.1894 592.405 68.7114 592.405 69.3834V74.8374H589.327V61.5174H592.405V66.1434C592.717 65.6994 593.143 65.3454 593.683 65.0814C594.223 64.8174 594.829 64.6854 595.501 64.6854ZM610.924 69.6534C610.924 69.9414 610.906 70.2414 610.87 70.5534H603.904C603.952 71.1774 604.15 71.6574 604.498 71.9934C604.858 72.3174 605.296 72.4794 605.812 72.4794C606.58 72.4794 607.114 72.1554 607.414 71.5074H610.69C610.522 72.1674 610.216 72.7614 609.772 73.2894C609.34 73.8174 608.794 74.2314 608.134 74.5314C607.474 74.8314 606.736 74.9814 605.92 74.9814C604.936 74.9814 604.06 74.7714 603.292 74.3514C602.524 73.9314 601.924 73.3314 601.492 72.5514C601.06 71.7714 600.844 70.8594 600.844 69.8154C600.844 68.7714 601.054 67.8594 601.474 67.0794C601.906 66.2994 602.506 65.6994 603.274 65.2794C604.042 64.8594 604.924 64.6494 605.92 64.6494C606.892 64.6494 607.756 64.8534 608.512 65.2614C609.268 65.6694 609.856 66.2514 610.276 67.0074C610.708 67.7634 610.924 68.6454 610.924 69.6534ZM607.774 68.8434C607.774 68.3154 607.594 67.8954 607.234 67.5834C606.874 67.2714 606.424 67.1154 605.884 67.1154C605.368 67.1154 604.93 67.2654 604.57 67.5654C604.222 67.8654 604.006 68.2914 603.922 68.8434H607.774ZM611.936 69.8154C611.936 68.7714 612.146 67.8594 612.566 67.0794C612.998 66.2994 613.592 65.6994 614.348 65.2794C615.116 64.8594 615.992 64.6494 616.976 64.6494C618.236 64.6494 619.286 64.9794 620.126 65.6394C620.978 66.2994 621.536 67.2294 621.8 68.4294H618.524C618.248 67.6614 617.714 67.2774 616.922 67.2774C616.358 67.2774 615.908 67.4994 615.572 67.9434C615.236 68.3754 615.068 68.9994 615.068 69.8154C615.068 70.6314 615.236 71.2614 615.572 71.7054C615.908 72.1374 616.358 72.3534 616.922 72.3534C617.714 72.3534 618.248 71.9694 618.524 71.2014H621.8C621.536 72.3774 620.978 73.3014 620.126 73.9734C619.274 74.6454 618.224 74.9814 616.976 74.9814C615.992 74.9814 615.116 74.7714 614.348 74.3514C613.592 73.9314 612.998 73.3314 612.566 72.5514C612.146 71.7714 611.936 70.8594 611.936 69.8154ZM629.584 74.8374L626.524 70.6254V74.8374H623.446V61.5174H626.524V68.8794L629.566 64.7934H633.364L629.188 69.8334L633.4 74.8374H629.584ZM642.959 74.9814C641.975 74.9814 641.087 74.7714 640.295 74.3514C639.515 73.9314 638.897 73.3314 638.441 72.5514C637.997 71.7714 637.775 70.8594 637.775 69.8154C637.775 68.7834 638.003 67.8774 638.459 67.0974C638.915 66.3054 639.539 65.6994 640.331 65.2794C641.123 64.8594 642.011 64.6494 642.995 64.6494C643.979 64.6494 644.867 64.8594 645.659 65.2794C646.451 65.6994 647.075 66.3054 647.531 67.0974C647.987 67.8774 648.215 68.7834 648.215 69.8154C648.215 70.8474 647.981 71.7594 647.513 72.5514C647.057 73.3314 646.427 73.9314 645.623 74.3514C644.831 74.7714 643.943 74.9814 642.959 74.9814ZM642.959 72.3174C643.547 72.3174 644.045 72.1014 644.453 71.6694C644.873 71.2374 645.083 70.6194 645.083 69.8154C645.083 69.0114 644.879 68.3934 644.471 67.9614C644.075 67.5294 643.583 67.3134 642.995 67.3134C642.395 67.3134 641.897 67.5294 641.501 67.9614C641.105 68.3814 640.907 68.9994 640.907 69.8154C640.907 70.6194 641.099 71.2374 641.483 71.6694C641.879 72.1014 642.371 72.3174 642.959 72.3174ZM659.766 64.7934V74.8374H656.688V73.4694C656.376 73.9134 655.95 74.2734 655.41 74.5494C654.882 74.8134 654.294 74.9454 653.646 74.9454C652.878 74.9454 652.2 74.7774 651.612 74.4414C651.024 74.0934 650.568 73.5954 650.244 72.9474C649.92 72.2994 649.758 71.5374 649.758 70.6614V64.7934H652.818V70.2474C652.818 70.9194 652.992 71.4414 653.34 71.8134C653.688 72.1854 654.156 72.3714 654.744 72.3714C655.344 72.3714 655.818 72.1854 656.166 71.8134C656.514 71.4414 656.688 70.9194 656.688 70.2474V64.7934H659.766ZM667.575 72.2274V74.8374H666.009C664.893 74.8374 664.023 74.5674 663.399 74.0274C662.775 73.4754 662.463 72.5814 662.463 71.3454V67.3494H661.239V64.7934H662.463V62.3454H665.541V64.7934H667.557V67.3494H665.541V71.3814C665.541 71.6814 665.613 71.8974 665.757 72.0294C665.901 72.1614 666.141 72.2274 666.477 72.2274H667.575Z" fill="#115573"/>
<circle cx="1202.5" cy="29.9187" r="19.9187" fill="#115573"/>
<path d="M1198.63 26.118C1198.7 25.002 1199.12 24.132 1199.9 23.508C1200.7 22.884 1201.7 22.572 1202.93 22.572C1203.77 22.572 1204.49 22.722 1205.11 23.022C1205.72 23.322 1206.18 23.73 1206.49 24.246C1206.8 24.762 1206.96 25.344 1206.96 25.992C1206.96 26.736 1206.76 27.372 1206.37 27.9C1205.97 28.428 1205.5 28.782 1204.94 28.962V29.034C1205.65 29.25 1206.2 29.646 1206.6 30.222C1207 30.786 1207.19 31.512 1207.19 32.4C1207.19 33.108 1207.03 33.738 1206.71 34.29C1206.38 34.842 1205.9 35.28 1205.27 35.604C1204.63 35.916 1203.87 36.072 1202.98 36.072C1201.69 36.072 1200.62 35.742 1199.78 35.082C1198.95 34.41 1198.51 33.45 1198.45 32.202H1200.43C1200.47 32.838 1200.72 33.36 1201.16 33.768C1201.61 34.164 1202.21 34.362 1202.96 34.362C1203.7 34.362 1204.26 34.164 1204.66 33.768C1205.05 33.36 1205.25 32.838 1205.25 32.202C1205.25 31.362 1204.98 30.768 1204.44 30.42C1203.91 30.06 1203.1 29.88 1201.99 29.88H1201.52V28.188H1202.01C1202.98 28.176 1203.72 28.014 1204.22 27.702C1204.74 27.39 1205 26.898 1205 26.226C1205 25.65 1204.81 25.194 1204.44 24.858C1204.07 24.51 1203.54 24.336 1202.86 24.336C1202.18 24.336 1201.66 24.51 1201.29 24.858C1200.92 25.194 1200.7 25.614 1200.62 26.118H1198.63Z" fill="white"/>
<path d="M1169.75 69.2694C1169.75 70.0014 1169.58 70.6734 1169.24 71.2854C1168.91 71.8854 1168.39 72.3714 1167.69 72.7434C1167 73.1154 1166.13 73.3014 1165.1 73.3014H1163.19V77.8374H1160.12V65.2014H1165.1C1166.11 65.2014 1166.96 65.3754 1167.66 65.7234C1168.35 66.0714 1168.88 66.5514 1169.22 67.1634C1169.57 67.7754 1169.75 68.4774 1169.75 69.2694ZM1164.87 70.8534C1165.46 70.8534 1165.89 70.7154 1166.18 70.4394C1166.47 70.1634 1166.61 69.7734 1166.61 69.2694C1166.61 68.7654 1166.47 68.3754 1166.18 68.0994C1165.89 67.8234 1165.46 67.6854 1164.87 67.6854H1163.19V70.8534H1164.87ZM1170.74 72.7974C1170.74 71.7654 1170.93 70.8594 1171.31 70.0794C1171.71 69.2994 1172.24 68.6994 1172.91 68.2794C1173.59 67.8594 1174.34 67.6494 1175.16 67.6494C1175.87 67.6494 1176.49 67.7934 1177.02 68.0814C1177.56 68.3694 1177.97 68.7474 1178.26 69.2154V67.7934H1181.34V77.8374H1178.26V76.4154C1177.96 76.8834 1177.54 77.2614 1177 77.5494C1176.47 77.8374 1175.85 77.9814 1175.15 77.9814C1174.33 77.9814 1173.59 77.7714 1172.91 77.3514C1172.24 76.9194 1171.71 76.3134 1171.31 75.5334C1170.93 74.7414 1170.74 73.8294 1170.74 72.7974ZM1178.26 72.8154C1178.26 72.0474 1178.04 71.4414 1177.61 70.9974C1177.19 70.5534 1176.68 70.3314 1176.06 70.3314C1175.45 70.3314 1174.93 70.5534 1174.5 70.9974C1174.08 71.4294 1173.87 72.0294 1173.87 72.7974C1173.87 73.5654 1174.08 74.1774 1174.5 74.6334C1174.93 75.0774 1175.45 75.2994 1176.06 75.2994C1176.68 75.2994 1177.19 75.0774 1177.61 74.6334C1178.04 74.1894 1178.26 73.5834 1178.26 72.8154ZM1193.83 67.7934L1187.53 82.6074H1184.21L1186.52 77.4954L1182.43 67.7934H1185.87L1188.19 74.0754L1190.5 67.7934H1193.83ZM1207.75 67.6854C1209 67.6854 1209.99 68.0634 1210.72 68.8194C1211.47 69.5754 1211.84 70.6254 1211.84 71.9694V77.8374H1208.78V72.3834C1208.78 71.7354 1208.61 71.2374 1208.26 70.8894C1207.92 70.5294 1207.45 70.3494 1206.85 70.3494C1206.25 70.3494 1205.78 70.5294 1205.43 70.8894C1205.1 71.2374 1204.93 71.7354 1204.93 72.3834V77.8374H1201.87V72.3834C1201.87 71.7354 1201.69 71.2374 1201.35 70.8894C1201.01 70.5294 1200.54 70.3494 1199.94 70.3494C1199.34 70.3494 1198.87 70.5294 1198.52 70.8894C1198.18 71.2374 1198.02 71.7354 1198.02 72.3834V77.8374H1194.94V67.7934H1198.02V69.0534C1198.33 68.6334 1198.74 68.3034 1199.24 68.0634C1199.74 67.8114 1200.31 67.6854 1200.95 67.6854C1201.71 67.6854 1202.38 67.8474 1202.97 68.1714C1203.57 68.4954 1204.03 68.9574 1204.37 69.5574C1204.72 69.0054 1205.19 68.5554 1205.79 68.2074C1206.39 67.8594 1207.05 67.6854 1207.75 67.6854ZM1223.46 72.6534C1223.46 72.9414 1223.44 73.2414 1223.41 73.5534H1216.44C1216.49 74.1774 1216.69 74.6574 1217.03 74.9934C1217.39 75.3174 1217.83 75.4794 1218.35 75.4794C1219.12 75.4794 1219.65 75.1554 1219.95 74.5074H1223.23C1223.06 75.1674 1222.75 75.7614 1222.31 76.2894C1221.88 76.8174 1221.33 77.2314 1220.67 77.5314C1220.01 77.8314 1219.27 77.9814 1218.46 77.9814C1217.47 77.9814 1216.6 77.7714 1215.83 77.3514C1215.06 76.9314 1214.46 76.3314 1214.03 75.5514C1213.6 74.7714 1213.38 73.8594 1213.38 72.8154C1213.38 71.7714 1213.59 70.8594 1214.01 70.0794C1214.44 69.2994 1215.04 68.6994 1215.81 68.2794C1216.58 67.8594 1217.46 67.6494 1218.46 67.6494C1219.43 67.6494 1220.29 67.8534 1221.05 68.2614C1221.8 68.6694 1222.39 69.2514 1222.81 70.0074C1223.24 70.7634 1223.46 71.6454 1223.46 72.6534ZM1220.31 71.8434C1220.31 71.3154 1220.13 70.8954 1219.77 70.5834C1219.41 70.2714 1218.96 70.1154 1218.42 70.1154C1217.9 70.1154 1217.47 70.2654 1217.11 70.5654C1216.76 70.8654 1216.54 71.2914 1216.46 71.8434H1220.31ZM1231.2 67.6854C1232.38 67.6854 1233.32 68.0694 1234.01 68.8374C1234.72 69.5934 1235.07 70.6374 1235.07 71.9694V77.8374H1232.01V72.3834C1232.01 71.7114 1231.84 71.1894 1231.49 70.8174C1231.14 70.4454 1230.68 70.2594 1230.09 70.2594C1229.5 70.2594 1229.03 70.4454 1228.68 70.8174C1228.34 71.1894 1228.16 71.7114 1228.16 72.3834V77.8374H1225.08V67.7934H1228.16V69.1254C1228.47 68.6814 1228.89 68.3334 1229.42 68.0814C1229.95 67.8174 1230.54 67.6854 1231.2 67.6854ZM1242.81 75.2274V77.8374H1241.25C1240.13 77.8374 1239.26 77.5674 1238.64 77.0274C1238.01 76.4754 1237.7 75.5814 1237.7 74.3454V70.3494H1236.48V67.7934H1237.7V65.3454H1240.78V67.7934H1242.79V70.3494H1240.78V74.3814C1240.78 74.6814 1240.85 74.8974 1240.99 75.0294C1241.14 75.1614 1241.38 75.2274 1241.71 75.2274H1242.81Z" fill="#115573"/>
</svg>
