<svg width="44" height="44" viewBox="0 0 44 44" fill="none" xmlns="http://www.w3.org/2000/svg">
<path d="M22.1781 41.6673C20.9367 41.6673 19.7673 41.0376 18.9397 39.9401L16.2411 36.342C16.1871 36.27 15.9712 36.18 15.8813 36.1621H14.9817C7.47954 36.1621 2.83789 34.1291 2.83789 24.0182V15.0228C2.83789 7.07078 7.02977 2.87891 14.9817 2.87891H29.3745C37.3264 2.87891 41.5183 7.07078 41.5183 15.0228V24.0182C41.5183 31.9702 37.3264 36.1621 29.3745 36.1621H28.4749C28.331 36.1621 28.205 36.234 28.1151 36.342L25.4165 39.9401C24.5889 41.0376 23.4195 41.6673 22.1781 41.6673ZM14.9817 5.57754C8.541 5.57754 5.53652 8.58202 5.53652 15.0228V24.0182C5.53652 32.1501 8.32511 33.4634 14.9817 33.4634H15.8813C16.7988 33.4634 17.8423 33.9852 18.4 34.7228L21.0986 38.321C21.7283 39.1485 22.6279 39.1485 23.2576 38.321L25.9562 34.7228C26.5499 33.9312 27.4854 33.4634 28.4749 33.4634H29.3745C35.8152 33.4634 38.8197 30.4589 38.8197 24.0182V15.0228C38.8197 8.58202 35.8152 5.57754 29.3745 5.57754H14.9817Z" fill="black" fill-opacity="0.6"/>
<path d="M31.1742 16.372H13.1833C12.4457 16.372 11.834 15.7603 11.834 15.0227C11.834 14.285 12.4457 13.6733 13.1833 13.6733H31.1742C31.9118 13.6733 32.5235 14.285 32.5235 15.0227C32.5235 15.7603 31.9118 16.372 31.1742 16.372Z" fill="black" fill-opacity="0.6"/>
<path d="M23.9778 25.3676H13.1833C12.4457 25.3676 11.834 24.7559 11.834 24.0183C11.834 23.2806 12.4457 22.6689 13.1833 22.6689H23.9778C24.7155 22.6689 25.3272 23.2806 25.3272 24.0183C25.3272 24.7559 24.7155 25.3676 23.9778 25.3676Z" fill="black" fill-opacity="0.6"/>
</svg>
