<svg width="30" height="31" viewBox="0 0 30 31" fill="none" xmlns="http://www.w3.org/2000/svg">
<path d="M15 16.4375C11.0375 16.4375 7.8125 13.2125 7.8125 9.25C7.8125 5.2875 11.0375 2.0625 15 2.0625C18.9625 2.0625 22.1875 5.2875 22.1875 9.25C22.1875 13.2125 18.9625 16.4375 15 16.4375ZM15 3.9375C12.075 3.9375 9.6875 6.325 9.6875 9.25C9.6875 12.175 12.075 14.5625 15 14.5625C17.925 14.5625 20.3125 12.175 20.3125 9.25C20.3125 6.325 17.925 3.9375 15 3.9375Z" fill="black" fill-opacity="0.6"/>
<path d="M19.7749 28.9375C19.2999 28.9375 18.8499 28.7624 18.5249 28.4374C18.1374 28.0499 17.9624 27.4875 18.0499 26.9L18.2874 25.2125C18.3499 24.775 18.6125 24.2625 18.925 23.9375L23.3499 19.5125C25.1249 17.7375 26.6875 18.75 27.45 19.5125C28.1 20.1625 28.4374 20.8624 28.4374 21.5624C28.4374 22.2749 28.1125 22.9374 27.45 23.5999L23.0249 28.025C22.7124 28.3375 22.1875 28.6 21.75 28.6625L20.0624 28.8999C19.9624 28.9249 19.8749 28.9375 19.7749 28.9375ZM25.3874 20.3999C25.1624 20.3999 24.9624 20.55 24.6749 20.8375L20.25 25.2625C20.2125 25.3 20.1499 25.4249 20.1499 25.4749L19.9249 27.0374L21.4874 26.8125C21.5374 26.8 21.6624 26.7375 21.6999 26.7L26.125 22.2749C26.325 22.0749 26.5624 21.7874 26.5624 21.5624C26.5624 21.3749 26.4125 21.1125 26.125 20.8375C25.825 20.5375 25.5999 20.3999 25.3874 20.3999Z" fill="black" fill-opacity="0.6"/>
<path d="M26.1502 24.5249C26.0627 24.5249 25.9752 24.5125 25.9002 24.4875C24.2502 24.025 22.9377 22.7125 22.4752 21.0625C22.3377 20.5625 22.6253 20.05 23.1253 19.9125C23.6253 19.775 24.1377 20.0624 24.2752 20.5624C24.5627 21.5874 25.3753 22.4 26.4003 22.6875C26.9003 22.825 27.1878 23.3499 27.0503 23.8374C26.9378 24.2499 26.5627 24.5249 26.1502 24.5249Z" fill="black" fill-opacity="0.6"/>
<path d="M4.2627 28.9375C3.7502 28.9375 3.3252 28.5125 3.3252 28C3.3252 22.6625 8.56273 18.3125 15.0002 18.3125C16.3627 18.3125 17.7127 18.5125 18.9752 18.8875C19.4752 19.0375 19.7502 19.5625 19.6002 20.05C19.4502 20.55 18.9252 20.825 18.4377 20.675C17.3377 20.35 16.1877 20.175 15.0002 20.175C9.60023 20.175 5.2002 23.675 5.2002 27.9875C5.2002 28.5125 4.7752 28.9375 4.2627 28.9375Z" fill="black" fill-opacity="0.6"/>
</svg>
